# xmcd
#
# Track frame offsets: 
#        150
#        16182
#        34680
#        51105
#        70692
#        85170
#        99777
#        116197
#        126905
#        142422
#
# Disc length: 2095 seconds
#
# Revision: 5
# Processed by: cddbd v1.5.2PL0 Copyright (c) Steve Scherf et al.
# Submitted via: ExactAudioCopy v0.99pb4
#
DISCID=84082d0a
DTITLE=Eddie Rabbitt - Ten Years of Greatest Hits
DYEAR=1990
DGENRE=Country
TTITLE0=Lonely Out Tonite
TTITLE1=Runnin' with the Wind
TTITLE2=On Second Thought
TTITLE3=Suspicions
TTITLE4=I Love a Rainy Night
TTITLE5=Drivin' My Life Away
TTITLE6=Rocky Mountain Music
TTITLE7=Two Dollars in the Jukebox
TTITLE8=Pour Me Another Tequila
TTITLE9=Gone Too Far
EXTD=
EXTT0=
EXTT1=
EXTT2=
EXTT3=
EXTT4=
EXTT5=
EXTT6=
EXTT7=
EXTT8=
EXTT9=
PLAYORDER=
